<?xml version="1.0" encoding="utf-8"?>
<!-- Generator: Adobe Illustrator 16.0.0, SVG Export Plug-In . SVG Version: 6.00 Build 0)  -->
<!DOCTYPE svg PUBLIC "-//W3C//DTD SVG 1.1//EN" "http://www.w3.org/Graphics/SVG/1.1/DTD/svg11.dtd">
<svg version="1.1" id="Layer_1" xmlns="http://www.w3.org/2000/svg" xmlns:xlink="http://www.w3.org/1999/xlink" x="0px" y="0px"
	 width="300px" height="300px" viewBox="0 0 300 300" enable-background="new 0 0 300 300" xml:space="preserve">
<circle fill="#FFFFFF" cx="150" cy="150" r="147"/>
<path fill="#BFBFBF" enable-background="new    " d="M150,4c38.998,0,75.662,15.187,103.236,42.762
	C280.812,74.338,296,111.002,296,150s-15.188,75.662-42.764,103.236C225.662,280.812,188.998,296,150,296
	s-75.662-15.188-103.238-42.764C19.187,225.662,4,188.998,4,150S19.187,74.338,46.762,46.762C74.337,19.186,111.002,4,150,4 M150,0
	C67.157,0,0,67.157,0,150s67.157,150,150,150s150-67.157,150-150S232.843,0,150,0L150,0z"/>
<g id="put-key-feature-01" display="none">
	<circle display="inline" fill="#FFFFFF" cx="150" cy="150" r="147"/>
	<path display="inline" fill="#D9C3E8" d="M150,4c38.998,0,75.662,15.187,103.236,42.762C280.812,74.338,296,111.002,296,150
		s-15.188,75.662-42.764,103.236C225.662,280.812,188.998,296,150,296s-75.662-15.188-103.238-42.764
		C19.187,225.662,4,188.998,4,150S19.187,74.338,46.762,46.762C74.337,19.186,111.002,4,150,4 M150,0C67.157,0,0,67.157,0,150
		s67.157,150,150,150s150-67.157,150-150S232.843,0,150,0L150,0z"/>
	<path display="inline" fill="#B487D2" d="M240.975,73.685c-0.457-0.578-1.287-0.857-2.567-0.914
		c-3.679-0.158-7.166,0.619-10.626,1.458c-14.029,3.4-27.188,8.791-39.999,14.937c-22.792,10.925-43.741,24.517-62.294,41.527
		c-3.966,3.636-7.923,7.284-11.469,11.346c-1.095,1.253-2.202,1.687-3.95,1.259c-9.44-2.303-18.895-4.511-28.345-6.753
		c-1.874-0.446-3.744-0.979-5.628-1.311c-1.425-0.254-1.703-0.645-0.928-1.863c1.899-2.987,3.364-6.21,4.212-9.763
		c1.281-5.37,0.04-6.899-5.376-6.365c-10.012,0.989-17.952,5.642-24.402,12.829c-3.296,3.673-6.282,7.588-7.674,12.58
		c-0.202,0.729-0.35,1.489-0.401,2.256c-0.288,4.276,2.035,6.761,6.279,6.684c3.333-0.064,6.515-0.863,9.196-2.541
		c2.583-1.618,4.653-1.192,7.388,0.431c10.525,6.245,21.174,12.25,31.805,18.282c1.427,0.812,2.12,1.461,1.768,3.275
		c-0.735,3.787,0.408,7.273,3.171,10.434c1.603,1.829,3.188,3.676,4.768,5.529c1.549,1.878,3.093,3.755,4.616,5.65
		c2.633,3.271,5.873,5.005,9.728,4.935c1.849-0.032,2.371,0.769,2.923,2.312c4.098,11.518,8.16,23.043,12.482,34.488
		c1.123,2.975,1.187,5.088-0.856,7.352c-2.121,2.348-3.458,5.342-4.1,8.611c-0.816,4.166,1.23,6.887,5.493,7.346
		c0.763,0.08,1.54,0.066,2.291-0.002c5.158-0.51,9.536-2.768,13.725-5.377c8.196-5.096,14.16-12.11,16.873-21.795
		c1.467-5.242,0.176-6.727-5.335-6.396c-3.646,0.214-7.078,1.101-10.352,2.449c-1.334,0.553-1.674,0.21-1.673-1.235
		c0-1.913-0.2-3.846-0.312-5.771c-0.569-9.69-1.104-19.387-1.731-29.077c-0.116-1.798,0.501-2.812,1.927-3.677
		c4.614-2.776,8.896-6.045,13.168-9.316c19.979-15.314,37.004-33.582,51.728-54.118c8.272-11.551,15.872-23.573,21.653-36.793
		c1.432-3.258,2.803-6.559,3.281-10.208C241.6,75.103,241.467,74.235,240.975,73.685z"/>
	<path display="inline" fill="#D9C3E8" d="M104.366,206.586c-3.12,2.321-6.641,2.686-10.665,1.969
		c0.753-0.521,1.249-0.799,1.66-1.164c1.626-1.447,1.777-3.947,0.353-5.408c-1.539-1.571-4.036-1.487-5.442,0.377
		c-0.677,0.897-1.016,2.07-1.412,3.15c-0.533,1.465-0.793,3.055-1.497,4.417c-1.331,2.585-4.518,3.983-6.971,3.279
		c2.004-1.573,2.268-3.806,2.163-6.079c-0.115-2.402-0.645-4.798-0.617-7.193c0.038-2.877,0.022-5.888,0.821-8.604
		c1.794-6.083,7.547-8.944,13.671-7.257c0.483,0.129,0.968,0.271,1.849,0.512c-7.199-5.208-17.048-5.339-23.477-0.563
		c-5.618,4.166-8.657,13.586-6.467,20.06c2.085-1.267,3.763-1.188,5.17,0.223c1.315,1.322,1.438,3.382,0.069,5.229
		c-0.708,0.953-1.696,1.768-2.704,2.418c-1.164,0.749-2.488,1.244-3.743,1.857c-4.848,2.377-8.004,7.729-7.688,13.287
		c2.09-3.07,5.104-3.961,8.286-4.055c3.169-0.088,6.363,0.25,9.537,0.511c5.714,0.464,11.418,0.752,16.995-0.873
		c5.258-1.528,9.927-3.942,12.956-8.829c3.413-5.505,3.632-11.173,1.188-17.076C108.399,200.614,107.64,204.146,104.366,206.586z"/>
</g>
<g id="put-key-feature-02" display="none">
	<circle display="inline" fill="#FFFFFF" cx="150" cy="150" r="147"/>
	<path display="inline" fill="#D9C3E8" d="M150,4c38.998,0,75.662,15.187,103.236,42.762C280.812,74.338,296,111.002,296,150
		s-15.188,75.662-42.764,103.236C225.662,280.812,188.998,296,150,296s-75.662-15.188-103.238-42.764
		C19.187,225.662,4,188.998,4,150S19.187,74.338,46.762,46.762C74.337,19.186,111.002,4,150,4 M150,0C67.157,0,0,67.157,0,150
		s67.157,150,150,150s150-67.157,150-150S232.843,0,150,0L150,0z"/>
	<path display="inline" fill="#B487D2" d="M264.18,141.707c-4.992-5.289-12.988-5.133-19.654,0.473
		c-1.947,1.641-3.705,3.663-5.713,5.164c-9.347,6.992-17.496,1.934-17.843-11.789V84.031h-51.521
		c-13.727-0.346-18.786-8.496-11.795-17.842c1.502-2.009,3.525-3.765,5.167-5.718c5.604-6.663,5.765-14.658,0.474-19.65
		c-3.885-3.672-10.752-5.729-17.809-5.821c-7.058,0.095-13.925,2.148-17.812,5.821c-5.291,4.992-5.129,12.988,0.477,19.65
		c1.64,1.953,3.664,3.708,5.164,5.718c6.996,9.346,1.934,17.496-11.792,17.842H70v51.528c0.346,13.718,8.501,18.78,17.847,11.785
		c2.004-1.497,3.76-3.521,5.713-5.158c6.663-5.611,14.66-5.762,19.651-0.479c3.672,3.881,5.73,10.754,5.826,17.809
		c-0.096,7.065-2.154,13.926-5.826,17.812c-4.991,5.293-12.988,5.136-19.651-0.474c-1.953-1.642-3.708-3.662-5.713-5.166
		C78.501,164.7,70.346,169.753,70,183.479V235h51.523c13.724-0.35,18.782-8.499,11.79-17.85c-1.5-2.002-3.523-3.754-5.162-5.709
		c-5.607-6.664-5.767-14.664-0.479-19.651c3.887-3.672,10.751-5.728,17.812-5.826c7.059,0.101,13.924,2.154,17.809,5.826
		c5.287,4.987,5.131,12.987-0.475,19.651c-1.643,1.955-3.664,3.707-5.166,5.709c-6.991,9.351-1.934,17.5,11.793,17.85h51.521
		v-51.523c0.349-13.724,8.496-18.781,17.845-11.789c2.008,1.5,3.764,3.524,5.713,5.166c6.666,5.606,14.662,5.764,19.652,0.474
		c3.674-3.886,5.729-10.749,5.82-17.812C269.905,152.46,267.852,145.588,264.18,141.707z"/>
</g>
<g id="put-key-feature-03" display="none">
	<circle display="inline" fill="#FFFFFF" cx="150" cy="150" r="147"/>
	<path display="inline" fill="#D9C3E8" d="M150,4c38.998,0,75.662,15.187,103.236,42.762C280.812,74.338,296,111.002,296,150
		s-15.188,75.662-42.764,103.236C225.662,280.812,188.998,296,150,296s-75.662-15.188-103.238-42.764
		C19.187,225.662,4,188.998,4,150S19.187,74.338,46.762,46.762C74.337,19.186,111.002,4,150,4 M150,0C67.157,0,0,67.157,0,150
		s67.157,150,150,150s150-67.157,150-150S232.843,0,150,0L150,0z"/>
	<path display="inline" fill="#B487D2" d="M68,233.835C69.066,240.177,74.594,245,81.252,245h137.496
		c6.652,0,12.182-4.823,13.252-11.165v-0.601H68V233.835z M218.748,132.059h-10.081v-25.311c0-34.001-26.151-61.587-58.448-61.748
		h-0.27c-32.288,0.161-58.425,27.747-58.425,61.748v25.311H81.252c-6.659,0-12.187,4.823-13.252,11.165v78.249h164v-78.249
		C230.93,136.882,225.4,132.059,218.748,132.059z M175.867,132.059h-51.542v-26.002c0-14.193,11.518-25.695,25.753-25.762
		c14.259,0.067,25.79,11.569,25.79,25.762L175.867,132.059L175.867,132.059z"/>
</g>
<path d="M125.969,137.248c-0.002-0.006-0.011-0.011-0.02-0.015L66.779,78.61c-3.507-3.476-9.212-3.485-12.731,0l-1.415,1.403
	c-3.507,3.485-3.516,9.136,0,12.622l52.82,52.326l-52.818,52.33c-3.511,3.482-3.516,9.129,0,12.611l1.417,1.404
	c3.511,3.479,9.217,3.482,12.732,0l59.143-58.603c0.015-0.017,0.03-0.021,0.041-0.033l1.415-1.397
	c0.771-0.771,1.344-1.648,1.777-2.581c1.539-3.296,0.968-7.323-1.777-10.044L125.969,137.248z M240.999,213.991H139.001
	c-4.968,0-9.001,3.539-9.001,8.481v1.985c0,4.942,4.033,9.539,9.001,9.539h101.998c4.969,0,9.001-4.597,9.001-9.539v-1.985
	C250,217.53,245.968,213.991,240.999,213.991z"/>
</svg>
