<?xml version="1.0" encoding="utf-8"?>
<!-- Generator: Adobe Illustrator 16.0.0, SVG Export Plug-In . SVG Version: 6.00 Build 0)  -->
<!DOCTYPE svg PUBLIC "-//W3C//DTD SVG 1.1//EN" "http://www.w3.org/Graphics/SVG/1.1/DTD/svg11.dtd">
<svg version="1.1" id="Layer_1" xmlns="http://www.w3.org/2000/svg" xmlns:xlink="http://www.w3.org/1999/xlink" x="0px" y="0px"
	 width="300px" height="300px" viewBox="0 0 300 300" enable-background="new 0 0 300 300" xml:space="preserve">
<circle fill="#FFFFFF" cx="150" cy="150" r="147"/>
<path fill="#BFBFBF" enable-background="new    " d="M150,4c38.998,0,75.662,15.187,103.236,42.762
	C280.812,74.338,296,111.002,296,150s-15.188,75.662-42.764,103.236C225.662,280.812,188.998,296,150,296
	s-75.662-15.188-103.238-42.764C19.187,225.662,4,188.998,4,150S19.187,74.338,46.762,46.762C74.337,19.186,111.002,4,150,4 M150,0
	C67.157,0,0,67.157,0,150s67.157,150,150,150s150-67.157,150-150S232.843,0,150,0L150,0z"/>
<g id="put-key-feature-01" display="none">
	<circle display="inline" fill="#FFFFFF" cx="150" cy="150" r="147"/>
	<path display="inline" fill="#D9C3E8" d="M150,4c38.998,0,75.662,15.187,103.236,42.762C280.812,74.338,296,111.002,296,150
		s-15.188,75.662-42.764,103.236C225.662,280.812,188.998,296,150,296s-75.662-15.188-103.238-42.764
		C19.187,225.662,4,188.998,4,150S19.187,74.338,46.762,46.762C74.337,19.186,111.002,4,150,4 M150,0C67.157,0,0,67.157,0,150
		s67.157,150,150,150s150-67.157,150-150S232.843,0,150,0L150,0z"/>
	<path display="inline" fill="#B487D2" d="M240.975,73.685c-0.457-0.578-1.287-0.857-2.568-0.914
		c-3.678-0.158-7.166,0.619-10.626,1.458c-14.029,3.4-27.188,8.791-39.999,14.937c-22.792,10.925-43.741,24.517-62.294,41.527
		c-3.966,3.636-7.923,7.284-11.469,11.346c-1.095,1.253-2.202,1.687-3.95,1.259c-9.44-2.303-18.895-4.511-28.345-6.753
		c-1.874-0.446-3.744-0.979-5.628-1.311c-1.425-0.254-1.703-0.645-0.928-1.863c1.899-2.987,3.364-6.21,4.212-9.763
		c1.281-5.37,0.04-6.899-5.376-6.365c-10.012,0.989-17.952,5.642-24.402,12.829c-3.296,3.673-6.282,7.588-7.674,12.58
		c-0.202,0.729-0.35,1.489-0.401,2.256c-0.288,4.276,2.035,6.761,6.279,6.684c3.333-0.064,6.515-0.863,9.196-2.541
		c2.583-1.618,4.653-1.192,7.388,0.431c10.525,6.245,21.174,12.25,31.805,18.282c1.427,0.812,2.12,1.461,1.768,3.275
		c-0.735,3.787,0.408,7.273,3.171,10.434c1.603,1.829,3.188,3.676,4.768,5.529c1.549,1.878,3.093,3.755,4.616,5.65
		c2.633,3.271,5.873,5.005,9.728,4.935c1.849-0.032,2.371,0.769,2.923,2.312c4.098,11.517,8.16,23.043,12.482,34.488
		c1.123,2.975,1.187,5.088-0.856,7.352c-2.121,2.347-3.458,5.341-4.1,8.611c-0.816,4.166,1.23,6.887,5.493,7.346
		c0.763,0.08,1.54,0.066,2.291-0.002c5.158-0.51,9.536-2.768,13.725-5.377c8.197-5.096,14.16-12.111,16.873-21.795
		c1.467-5.242,0.176-6.727-5.335-6.396c-3.646,0.214-7.078,1.1-10.351,2.449c-1.334,0.553-1.674,0.21-1.673-1.235
		c0-1.913-0.2-3.846-0.312-5.771c-0.569-9.691-1.104-19.387-1.731-29.078c-0.116-1.797,0.501-2.812,1.927-3.676
		c4.614-2.777,8.896-6.045,13.168-9.317c19.979-15.315,37.004-33.582,51.727-54.118c8.273-11.551,15.872-23.573,21.654-36.793
		c1.431-3.258,2.802-6.559,3.281-10.208C241.6,75.103,241.467,74.235,240.975,73.685z"/>
	<path display="inline" fill="#D9C3E8" d="M104.366,206.586c-3.12,2.321-6.641,2.686-10.665,1.969
		c0.753-0.521,1.249-0.799,1.66-1.164c1.626-1.447,1.777-3.947,0.353-5.408c-1.539-1.572-4.036-1.488-5.442,0.377
		c-0.677,0.897-1.016,2.07-1.412,3.15c-0.533,1.465-0.793,3.055-1.497,4.417c-1.331,2.585-4.518,3.983-6.971,3.279
		c2.004-1.573,2.268-3.806,2.163-6.079c-0.115-2.402-0.645-4.798-0.617-7.193c0.038-2.877,0.022-5.888,0.821-8.604
		c1.794-6.083,7.547-8.944,13.671-7.257c0.483,0.129,0.968,0.271,1.849,0.512c-7.199-5.208-17.048-5.339-23.477-0.563
		c-5.618,4.166-8.657,13.586-6.467,20.059c2.085-1.266,3.763-1.189,5.17,0.223c1.315,1.322,1.438,3.381,0.069,5.229
		c-0.708,0.953-1.696,1.768-2.704,2.418c-1.164,0.749-2.488,1.244-3.743,1.857c-4.848,2.377-8.004,7.729-7.688,13.288
		c2.09-3.071,5.104-3.961,8.286-4.055c3.169-0.088,6.363,0.25,9.537,0.511c5.714,0.463,11.418,0.752,16.995-0.873
		c5.258-1.529,9.927-3.943,12.956-8.83c3.413-5.504,3.632-11.172,1.188-17.076C108.399,200.614,107.64,204.146,104.366,206.586z"/>
</g>
<g id="put-key-feature-02" display="none">
	<circle display="inline" fill="#FFFFFF" cx="150" cy="150" r="147"/>
	<path display="inline" fill="#D9C3E8" d="M150,4c38.998,0,75.662,15.187,103.236,42.762C280.812,74.338,296,111.002,296,150
		s-15.188,75.662-42.764,103.236C225.662,280.812,188.998,296,150,296s-75.662-15.188-103.238-42.764
		C19.187,225.662,4,188.998,4,150S19.187,74.338,46.762,46.762C74.337,19.186,111.002,4,150,4 M150,0C67.157,0,0,67.157,0,150
		s67.157,150,150,150s150-67.157,150-150S232.843,0,150,0L150,0z"/>
	<path display="inline" fill="#B487D2" d="M264.18,141.707c-4.992-5.289-12.988-5.133-19.654,0.473
		c-1.948,1.641-3.705,3.663-5.713,5.164c-9.347,6.992-17.496,1.934-17.843-11.789V84.031h-51.521
		c-13.727-0.346-18.786-8.496-11.795-17.842c1.502-2.009,3.525-3.765,5.167-5.718c5.604-6.663,5.765-14.658,0.474-19.65
		c-3.885-3.672-10.752-5.728-17.809-5.821c-7.058,0.095-13.925,2.148-17.812,5.821c-5.291,4.992-5.129,12.988,0.477,19.65
		c1.64,1.953,3.664,3.708,5.164,5.718c6.996,9.346,1.934,17.496-11.792,17.842H70v51.528c0.346,13.718,8.501,18.78,17.847,11.785
		c2.004-1.497,3.76-3.521,5.713-5.158c6.663-5.611,14.66-5.762,19.651-0.479c3.672,3.881,5.73,10.754,5.826,17.809
		c-0.096,7.065-2.154,13.926-5.826,17.811c-4.991,5.293-12.988,5.136-19.651-0.473c-1.953-1.642-3.708-3.662-5.713-5.166
		C78.501,164.7,70.346,169.753,70,183.479V235h51.523c13.724-0.35,18.782-8.499,11.79-17.85c-1.5-2.002-3.523-3.754-5.162-5.709
		c-5.607-6.664-5.767-14.664-0.479-19.651c3.887-3.672,10.751-5.728,17.812-5.826c7.059,0.101,13.924,2.154,17.809,5.826
		c5.287,4.987,5.131,12.987-0.475,19.651c-1.642,1.955-3.664,3.707-5.166,5.709c-6.991,9.351-1.933,17.5,11.793,17.85h51.521
		v-51.523c0.348-13.724,8.496-18.781,17.844-11.789c2.008,1.5,3.764,3.524,5.713,5.166c6.666,5.606,14.662,5.763,19.653,0.473
		c3.673-3.885,5.728-10.749,5.82-17.811C269.905,152.46,267.852,145.588,264.18,141.707z"/>
</g>
<g id="put-key-feature-03" display="none">
	<circle display="inline" fill="#FFFFFF" cx="150" cy="150" r="147"/>
	<path display="inline" fill="#D9C3E8" d="M150,4c38.998,0,75.662,15.187,103.236,42.762C280.812,74.338,296,111.002,296,150
		s-15.188,75.662-42.764,103.236C225.662,280.812,188.998,296,150,296s-75.662-15.188-103.238-42.764
		C19.187,225.662,4,188.998,4,150S19.187,74.338,46.762,46.762C74.337,19.186,111.002,4,150,4 M150,0C67.157,0,0,67.157,0,150
		s67.157,150,150,150s150-67.157,150-150S232.843,0,150,0L150,0z"/>
	<path display="inline" fill="#B487D2" d="M68,233.835C69.066,240.177,74.594,245,81.252,245h137.496
		c6.652,0,12.182-4.823,13.252-11.165v-0.601H68V233.835z M218.748,132.059h-10.081v-25.311c0-34.001-26.151-61.587-58.448-61.748
		h-0.27c-32.288,0.161-58.425,27.747-58.425,61.748v25.311H81.252c-6.659,0-12.187,4.823-13.252,11.165v78.249h164v-78.249
		C230.93,136.882,225.4,132.059,218.748,132.059z M175.867,132.059h-51.542v-26.002c0-14.193,11.518-25.695,25.753-25.762
		c14.259,0.067,25.79,11.569,25.79,25.762L175.867,132.059L175.867,132.059z"/>
</g>
<g id="put-key-feature-04_1_" display="none">
	<circle display="inline" fill="#FFFFFF" cx="150" cy="150" r="147"/>
	<path display="inline" fill="#D9C3E8" d="M150,5c38.73,0,75.145,15.083,102.53,42.469C279.916,74.855,295,111.269,295,150
		c0,38.73-15.083,75.145-42.47,102.53C225.143,279.916,188.73,295,150,295c-38.731,0-75.144-15.083-102.531-42.47
		C20.082,225.143,5,188.73,5,150c0-38.731,15.083-75.144,42.469-102.531C74.855,20.082,111.269,5,150,5 M150,0
		C67.157,0,0,67.157,0,150s67.157,150,150,150s150-67.157,150-150S232.843,0,150,0L150,0z"/>
	<path display="inline" fill="#ECE1F4" d="M125.969,137.248c-0.002-0.006-0.011-0.011-0.02-0.015L66.779,78.61
		c-3.507-3.476-9.212-3.485-12.731,0l-1.415,1.403c-3.507,3.485-3.516,9.136,0,12.622l52.82,52.326l-52.818,52.33
		c-3.511,3.482-3.516,9.129,0,12.611l1.417,1.404c3.511,3.479,9.217,3.483,12.732,0l59.143-58.602
		c0.015-0.016,0.03-0.021,0.041-0.033l1.415-1.398c0.771-0.771,1.344-1.648,1.777-2.58c1.539-3.296,0.968-7.323-1.777-10.044
		L125.969,137.248z M240.999,213.991H139.001c-4.968,0-9.001,3.539-9.001,8.481v1.986c0,4.943,4.033,9.539,9.001,9.539h101.998
		c4.969,0,9.001-4.596,9.001-9.539v-1.986C250,217.53,245.968,213.991,240.999,213.991z"/>
</g>
<g id="put-key-feature-01-rev" display="none">
	<circle display="inline" fill="#FFFFFF" cx="150" cy="150" r="137.5"/>
	<g display="inline">
		<path fill="#B487D2" d="M150,0C67.157,0,0,67.157,0,150s67.157,150,150,150s150-67.157,150-150S232.843,0,150,0z M107.212,213.845
			c-3.029,4.886-7.698,7.3-12.956,8.831c-5.576,1.625-11.281,1.334-16.995,0.873c-3.173-0.261-6.367-0.599-9.537-0.511
			c-3.182,0.094-6.195,0.981-8.286,4.055c-0.317-5.559,2.84-10.911,7.688-13.289c1.255-0.614,2.58-1.108,3.743-1.858
			c1.008-0.648,1.996-1.465,2.704-2.418c1.369-1.848,1.246-3.902-0.069-5.227c-1.407-1.414-3.085-1.486-5.17-0.223
			c-2.189-6.473,0.849-15.893,6.467-20.059c6.429-4.773,16.278-4.645,23.477,0.563c-0.881-0.241-1.365-0.383-1.849-0.513
			c-6.124-1.688-11.877,1.175-13.671,7.258c-0.799,2.716-0.784,5.729-0.821,8.604c-0.028,2.396,0.501,4.791,0.617,7.193
			c0.105,2.273-0.158,4.506-2.163,6.079c2.454,0.704,5.641-0.694,6.971-3.279c0.704-1.36,0.963-2.953,1.497-4.417
			c0.396-1.08,0.735-2.253,1.412-3.148c1.406-1.867,3.903-1.951,5.442-0.379c1.425,1.461,1.273,3.963-0.353,5.41
			c-0.412,0.363-0.907,0.641-1.66,1.162c4.024,0.719,7.545,0.354,10.665-1.969c3.274-2.439,4.033-5.973,4.033-9.816
			C110.844,202.674,110.625,208.342,107.212,213.845z M241.43,76.375c-0.479,3.649-1.853,6.95-3.281,10.208
			c-5.782,13.22-13.381,25.242-21.654,36.793c-14.723,20.536-31.745,38.802-51.727,54.118c-4.271,3.273-8.554,6.54-13.168,9.318
			c-1.426,0.861-2.042,1.879-1.927,3.676c0.63,9.689,1.163,19.386,1.731,29.078c0.109,1.925,0.312,3.855,0.312,5.771
			c-0.001,1.445,0.338,1.788,1.673,1.235c3.271-1.354,6.702-2.235,10.351-2.449c5.511-0.328,6.802,1.156,5.335,6.396
			c-2.713,9.684-8.676,16.699-16.873,21.795c-4.189,2.609-8.566,4.869-13.725,5.377c-0.751,0.068-1.528,0.084-2.291,0.002
			c-4.262-0.459-6.309-3.18-5.493-7.344c0.642-3.272,1.979-6.269,4.1-8.613c2.043-2.262,1.979-4.375,0.856-7.352
			c-4.322-11.445-8.384-22.974-12.482-34.488c-0.552-1.541-1.074-2.342-2.923-2.312c-3.854,0.07-7.094-1.662-9.728-4.937
			c-1.523-1.896-3.067-3.771-4.616-5.648c-1.58-1.854-3.165-3.7-4.768-5.53c-2.763-3.157-3.906-6.646-3.171-10.433
			c0.352-1.812-0.341-2.465-1.768-3.276c-10.63-6.03-21.279-12.036-31.805-18.281c-2.735-1.623-4.805-2.049-7.388-0.431
			c-2.682,1.678-5.863,2.479-9.196,2.541c-4.244,0.077-6.566-2.408-6.279-6.684c0.051-0.767,0.199-1.527,0.401-2.256
			c1.392-4.991,4.378-8.907,7.674-12.58c6.45-7.187,14.39-11.84,24.402-12.829c5.416-0.534,6.657,0.996,5.376,6.365
			c-0.848,3.552-2.312,6.775-4.212,9.763c-0.775,1.218-0.497,1.609,0.928,1.863c1.884,0.332,3.755,0.864,5.628,1.311
			c9.451,2.242,18.905,4.45,28.345,6.753c1.748,0.427,2.855-0.006,3.95-1.259c3.546-4.062,7.503-7.71,11.469-11.346
			c18.553-17.01,39.502-30.603,62.292-41.527c12.812-6.146,25.972-11.537,40-14.937c3.459-0.839,6.949-1.616,10.625-1.458
			c1.283,0.057,2.113,0.336,2.57,0.914C241.467,74.235,241.6,75.103,241.43,76.375z"/>
	</g>
	<path display="inline" fill="none" d="M238.404,72.771c-3.678-0.158-7.166,0.619-10.627,1.458
		c-14.028,3.4-27.188,8.791-39.998,14.937c-22.793,10.925-43.741,24.517-62.294,41.527c-3.966,3.636-7.923,7.284-11.469,11.346
		c-1.095,1.253-2.202,1.687-3.95,1.259c-9.44-2.303-18.895-4.511-28.345-6.753c-1.874-0.446-3.744-0.979-5.628-1.311
		c-1.425-0.254-1.703-0.645-0.928-1.863c1.899-2.987,3.364-6.21,4.212-9.763c1.281-5.37,0.04-6.899-5.376-6.365
		c-10.012,0.989-17.952,5.642-24.402,12.829c-3.296,3.673-6.282,7.588-7.674,12.58c-0.202,0.729-0.35,1.489-0.401,2.256
		c-0.288,4.276,2.035,6.761,6.279,6.684c3.333-0.064,6.515-0.863,9.196-2.541c2.583-1.618,4.653-1.192,7.388,0.431
		c10.525,6.245,21.174,12.25,31.805,18.282c1.427,0.812,2.12,1.461,1.768,3.275c-0.735,3.787,0.408,7.273,3.171,10.434
		c1.603,1.829,3.188,3.676,4.768,5.529c1.549,1.878,3.093,3.755,4.616,5.65c2.633,3.271,5.873,5.005,9.728,4.935
		c1.849-0.032,2.371,0.769,2.923,2.312c4.098,11.517,8.16,23.043,12.482,34.488c1.123,2.975,1.187,5.088-0.856,7.352
		c-2.121,2.347-3.458,5.341-4.1,8.611c-0.816,4.166,1.23,6.887,5.493,7.346c0.763,0.08,1.54,0.066,2.291-0.002
		c5.158-0.51,9.536-2.768,13.725-5.377c8.199-5.096,14.162-12.111,16.873-21.795c1.467-5.242,0.176-6.727-5.336-6.396
		c-3.646,0.214-7.077,1.1-10.348,2.449c-1.337,0.553-1.676,0.21-1.675-1.235c0-1.913-0.2-3.846-0.312-5.771
		c-0.568-9.691-1.103-19.387-1.73-29.078c-0.116-1.797,0.501-2.812,1.926-3.676c4.615-2.777,8.897-6.045,13.168-9.317
		c19.98-15.315,37.006-33.582,51.728-54.118c8.272-11.551,15.872-23.573,21.655-36.793c1.43-3.258,2.801-6.559,3.281-10.208
		c0.168-1.272,0.036-2.139-0.455-2.69C240.518,73.106,239.688,72.827,238.404,72.771z"/>
	<path display="inline" fill="#FFFFFF" d="M104.366,206.586c-3.12,2.321-6.641,2.686-10.665,1.969
		c0.753-0.521,1.249-0.799,1.66-1.164c1.626-1.447,1.777-3.947,0.353-5.408c-1.539-1.572-4.036-1.488-5.442,0.377
		c-0.677,0.897-1.016,2.07-1.412,3.15c-0.533,1.465-0.793,3.055-1.497,4.417c-1.331,2.585-4.518,3.983-6.971,3.279
		c2.004-1.573,2.268-3.806,2.163-6.079c-0.115-2.402-0.645-4.798-0.617-7.193c0.038-2.877,0.022-5.888,0.821-8.604
		c1.794-6.083,7.547-8.944,13.671-7.257c0.483,0.129,0.968,0.271,1.849,0.512c-7.199-5.208-17.048-5.339-23.477-0.563
		c-5.618,4.166-8.657,13.586-6.467,20.059c2.085-1.266,3.763-1.189,5.17,0.223c1.315,1.322,1.438,3.381,0.069,5.229
		c-0.708,0.953-1.696,1.768-2.704,2.418c-1.164,0.749-2.488,1.244-3.743,1.857c-4.848,2.377-8.004,7.729-7.688,13.288
		c2.09-3.071,5.104-3.961,8.286-4.055c3.169-0.088,6.363,0.25,9.537,0.511c5.714,0.463,11.418,0.752,16.995-0.873
		c5.258-1.529,9.927-3.943,12.956-8.83c3.413-5.504,3.632-11.172,1.188-17.076C108.399,200.614,107.64,204.146,104.366,206.586z"/>
</g>
<g id="put-key-feature-02-rev" display="none">
	<circle display="inline" fill="#FFFFFF" cx="150" cy="150" r="137.5"/>
	<g display="inline">
		<path fill="#B487D2" d="M150,0C67.157,0,0,67.157,0,150s67.157,150,150,150s150-67.157,150-150S232.843,0,150,0z M244.525,176.854
			c-1.95-1.642-3.705-3.666-5.715-5.166c-9.347-6.992-17.496-1.935-17.843,11.789V235h-51.522
			c-13.723-0.35-18.783-8.499-11.793-17.85c1.503-2.002,3.527-3.754,5.168-5.709c5.604-6.664,5.761-14.664,0.474-19.651
			c-3.885-3.672-10.75-5.728-17.809-5.826c-7.061,0.101-13.925,2.154-17.812,5.826c-5.288,4.987-5.129,12.987,0.479,19.651
			c1.638,1.955,3.662,3.707,5.162,5.709c6.992,9.351,1.934,17.5-11.79,17.85H70v-51.521c0.346-13.727,8.501-18.777,17.847-11.793
			c2.004,1.504,3.76,3.525,5.713,5.166c6.663,5.607,14.66,5.767,19.651,0.474c3.672-3.886,5.73-10.743,5.826-17.812
			c-0.096-7.054-2.154-13.927-5.826-17.808c-4.991-5.283-12.988-5.133-19.651,0.479c-1.953,1.635-3.708,3.661-5.713,5.158
			c-9.346,6.995-17.501,1.934-17.847-11.785V84.031h51.521c13.726-0.346,18.789-8.496,11.792-17.842
			c-1.5-2.009-3.523-3.765-5.164-5.718c-5.605-6.663-5.767-14.658-0.477-19.65c3.887-3.672,10.754-5.728,17.812-5.821
			c7.057,0.095,13.924,2.148,17.809,5.821c5.291,4.992,5.131,12.988-0.475,19.65c-1.642,1.953-3.664,3.708-5.166,5.718
			c-6.991,9.346-1.933,17.496,11.795,17.842h51.521v51.523c0.347,13.723,8.496,18.781,17.843,11.789
			c2.008-1.501,3.765-3.523,5.713-5.164c6.666-5.605,14.662-5.762,19.654-0.473c3.672,3.881,5.727,10.753,5.82,17.808
			c-0.096,7.062-2.148,13.926-5.82,17.812C259.188,182.614,251.191,182.46,244.525,176.854z"/>
	</g>
</g>
<g id="put-key-feature-04-rev" display="none">
	<circle display="inline" fill="#FFFFFF" cx="150" cy="150" r="137.5"/>
	<g display="inline">
		<path fill="#B487D2" d="M150,0C67.157,0,0,67.157,0,150s67.157,150,150,150s150-67.157,150-150S232.843,0,150,0z M129.161,148.695
			c-0.434,0.93-1.006,1.809-1.777,2.579l-1.415,1.399c-0.011,0.013-0.026,0.021-0.041,0.033l-59.143,58.601
			c-3.516,3.484-9.222,3.48-12.732,0l-1.417-1.404c-3.516-3.481-3.511-9.129,0-12.61l52.818-52.33l-52.82-52.326
			c-3.516-3.485-3.507-9.137,0-12.622l1.415-1.403c3.519-3.485,9.224-3.476,12.731,0l59.17,58.623
			c0.009,0.004,0.018,0.009,0.02,0.015l1.415,1.403C130.129,141.373,130.7,145.399,129.161,148.695z M250,224.461
			c0,4.944-4.032,9.539-9.001,9.539H139.001c-4.968,0-9.001-4.595-9.001-9.539v-1.988c0-4.94,4.033-8.479,9.001-8.479h101.998
			c4.969,0,9.001,3.539,9.001,8.479V224.461z"/>
	</g>
</g>
<g id="Layer_5" display="none">
	<g display="inline">
		<g>
			<path fill="#C30632" d="M74.505,121.418c-1.873-3.181-5.601-5.103-9.201-5.1c-6.287-0.002-10.913,4.773-10.915,11.045
				c0.001,5.987,4.813,10.998,10.826,10.998c3.825,0,7.324-1.827,9.381-5.055l6.857-0.002c-2.194,6.834-9.054,11.651-16.196,11.649
				c-4.467,0.002-9.04-1.96-12.217-5.147c-3.27-3.316-5.04-7.812-5.04-12.49C48,117.957,55.565,110,65.031,110
				c3.873,0.001,7.601,1.312,10.309,4.125l0.001-3.373h5.222v10.669L74.505,121.418z"/>
			<path fill="#C30632" d="M83.463,127.601c0.002-9.827,7.89-17.553,17.59-17.553c9.463-0.001,17.35,7.771,17.347,17.271
				c0.002,9.776-7.735,17.682-17.483,17.682C91.302,145.001,83.466,137.238,83.463,127.601z M111.877,127.364
				c0-5.989-4.902-10.947-10.866-10.947c-6.069,0-11.019,4.864-11.019,10.992c0,6.179,4.765,11.229,10.924,11.229
				C107.123,138.639,111.877,133.537,111.877,127.364z"/>
			<path fill="#C30632" d="M159.24,138.973l3.634-0.001v5.329h-13.578v-5.331l3.587,0.002v-19.42l-9.187,24.751l-4.47-0.002
				l-9.472-24.75l-0.001,19.418l3.874,0.003v5.33l-13.851-0.002v-5.328h3.635v-22.748h-3.635v-5.33h12.493l9.049,23.584
				l9.054-23.584h12.502v5.33h-3.634V138.973z"/>
			<path fill="#C30632" d="M174.734,138.973h3.591v5.328H164.75v-5.328h3.646v-22.745l-3.646-0.002v-5.33l13.575,0.001v5.331
				l-3.591-0.002V138.973z"/>
			<path fill="#C30632" d="M212.159,144.301l-5.933-0.001l-15.67-21.987v16.657l3.633,0.002v5.329h-13.578v-5.328l3.601-0.001
				v-22.747h-3.601l-0.002-5.329l9.339,0.001l15.854,22.362v-17.032h-3.634v-5.331l13.578-0.001v5.33h-3.589L212.159,144.301z"/>
			<path fill="#C30632" d="M252,144.301h-5.273l0.004-5.147c-2.571,3.84-6.994,5.801-11.566,5.803
				c-9.607,0.001-17.312-7.813-17.312-17.449c0-4.54,1.588-8.752,4.722-12.073c3.21-3.371,7.872-5.433,12.489-5.433
				c4.012,0,7.479,1.357,10.5,3.976v-3.082h5.229v9.825l-6.904-0.001c-1.074-1.451-2.328-2.529-3.783-3.233
				c-1.437-0.746-3.074-1.124-4.889-1.122c-6.208,0-10.965,4.873-10.965,11.044c0,6.128,4.754,11.186,10.916,11.186
				c4.426,0,8.164-2.432,9.795-6.548l-12.318-0.001v-5.387L252,126.661V144.301z"/>
		</g>
		<g>
			<path fill="#C30632" d="M85.507,179.37c0,2.764,1.861,5.108,4.948,5.108c2.752,0.002,4.892-1.732,4.888-4.594
				c0.001-3.324-3.119-4.172-5.691-4.921c-2.419-0.7-4.465-1.312-6.518-2.856c-2.382-1.78-3.635-4.312-3.635-7.308
				c-0.002-5.528,4.708-9.657,10.062-9.657c2.284,0.002,4.523,0.754,5.931,2.58v-1.873h4.845l-0.002,8.998l-5.688-0.004
				c-0.047-2.482-1.865-4.355-4.341-4.354c-2.47-0.001-4.516,1.544-4.519,4.167c0,3.283,2.895,3.98,5.454,4.729
				c2.568,0.711,4.991,1.412,7.139,3.055c2.141,1.73,3.311,4.213,3.313,7.025c-0.002,6.045-4.477,10.492-10.543,10.494
				c-2.558-0.002-4.799-0.886-6.387-2.861l0.002,2.204h-5.041v-9.928L85.507,179.37z"/>
			<path fill="#C30632" d="M103.75,172.576c0-9.836,7.873-17.574,17.573-17.576c9.474,0.002,17.354,7.783,17.354,17.295
				c0.002,9.792-7.746,17.705-17.492,17.705C111.579,190,103.752,182.229,103.75,172.576z M132.145,172.343
				c0-5.999-4.893-10.964-10.865-10.964c-6.058,0-11.005,4.871-11.005,11.008c0,6.188,4.755,11.245,10.912,11.245
				C127.391,183.632,132.142,178.521,132.145,172.343z"/>
			<path fill="#C30632" d="M140.127,172.576c-0.002-9.838,7.884-17.576,17.584-17.575c9.457,0.001,17.342,7.782,17.342,17.294
				c0,9.792-7.729,17.709-17.479,17.705C147.966,190,140.125,182.229,140.127,172.576z M168.527,172.344
				c0.003-6-4.9-10.963-10.862-10.965c-6.063,0-11.003,4.871-11,11.008c0.002,6.188,4.752,11.245,10.909,11.245
				C163.775,183.63,168.527,178.521,168.527,172.344z"/>
			<path fill="#C30632" d="M208.131,189.302h-5.924l-15.674-22.019v16.682l3.645,0.002v5.335h-13.572v-5.337l3.588,0.002v-22.779
				h-3.588v-5.336h9.326l15.855,22.395v-17.059l-3.633,0.004l-0.004-5.34h13.562l0.002,5.336h-3.588L208.131,189.302z"/>
			<path fill="#C30632" d="M220.5,179.28h-5.882l-0.002-23.431h5.884V179.28z M220.5,189.302h-5.882v-6.604h5.882V189.302z"/>
		</g>
	</g>
</g>
<path d="M218.748,132.059h-10.081v-25.311c0-34.001-26.151-61.587-58.448-61.748h-0.27c-32.288,0.161-58.425,27.747-58.425,61.748
	v25.311H81.252c-6.658,0-12.186,4.823-13.252,11.165v78.249h164v-78.249C230.93,136.882,225.4,132.059,218.748,132.059z
	 M175.867,132.058h-51.542v-26.002c0-14.193,11.518-25.695,25.753-25.762c14.259,0.067,25.789,11.569,25.789,25.762V132.058z
	 M68,233.835C69.065,240.177,74.593,245,81.252,245h137.496c6.652,0,12.182-4.823,13.252-11.165v-0.601H68V233.835z"/>
</svg>
